<svg width="17" height="17" viewBox="0 0 17 17" fill="none" xmlns="http://www.w3.org/2000/svg">
<path d="M12.402 10.2539C12.2412 10.1739 11.1964 9.69452 11.0356 9.61465C10.8748 9.53476 10.7141 9.53476 10.5533 9.69452C10.3925 9.85435 10.0711 10.3338 9.91029 10.4936C9.82994 10.6533 9.66916 10.6533 9.50843 10.5735C8.9458 10.3338 8.38315 10.0142 7.90089 9.61465C7.49902 9.21515 7.09713 8.73575 6.77563 8.25635C6.69524 8.09655 6.77563 7.93675 6.856 7.85685C6.93637 7.77695 7.01676 7.61715 7.1775 7.53724C7.25789 7.45735 7.33826 7.29754 7.33826 7.21765C7.41863 7.13775 7.41863 6.97795 7.33826 6.89805C7.25789 6.81814 6.856 5.85934 6.69524 5.45984C6.61487 4.90053 6.45411 4.90053 6.29337 4.90053C6.21298 4.90053 6.05224 4.90053 5.89148 4.90053C5.73072 4.90053 5.48959 5.06034 5.40922 5.14023C4.92696 5.61964 4.68583 6.17895 4.68583 6.81814C4.7662 7.53724 5.00733 8.25635 5.48959 8.89555C6.37374 10.1739 7.49902 11.2127 8.86541 11.8518C9.2673 12.0117 9.5888 12.1715 9.99073 12.2514C10.3925 12.4112 10.7945 12.4112 11.2767 12.3312C11.8393 12.2514 12.3216 11.8518 12.6432 11.3724C12.8039 11.0529 12.8038 10.7333 12.7235 10.4136C12.7235 10.4136 12.5627 10.3338 12.402 10.2539ZM14.4114 2.98293C11.2767 -0.133184 6.21298 -0.133184 3.07829 2.98293C0.506238 5.53974 0.0239786 9.45485 1.79227 12.5709L0.666992 16.6458L4.92696 15.5273C6.13261 16.1664 7.41863 16.4861 8.70467 16.4861C13.1254 16.4861 16.6619 12.9705 16.6619 8.57596C16.7424 6.49854 15.8582 4.50104 14.4114 2.98293ZM12.2412 14.169C11.1964 14.8082 9.99073 15.2076 8.70467 15.2076C7.49902 15.2076 6.37374 14.8881 5.32885 14.3288L5.08772 14.169L2.59603 14.8082L3.23905 12.4112L3.07829 12.1715C1.14925 8.97545 2.11377 4.98044 5.24846 2.98293C8.38315 0.98542 12.402 2.02412 14.3311 5.06034C16.2601 8.17645 15.3759 12.2514 12.2412 14.169Z" fill="white"/>
</svg>
